<?xml version="1.0" encoding="UTF-8" standalone="no"?>
<svg
   viewBox="0 0 512 512"
   style="height: 512px; width: 512px;"
   version="1.1"
   id="svg2"
   sodipodi:docname="Capybara_icon.svg"
   inkscape:export-filename="../b79dfd71/capybara_gradient.png"
   inkscape:export-xdpi="96"
   inkscape:export-ydpi="96"
   inkscape:version="1.4.2 (2aeb623e1d, 2025-05-12)"
   xmlns:inkscape="http://www.inkscape.org/namespaces/inkscape"
   xmlns:sodipodi="http://sodipodi.sourceforge.net/DTD/sodipodi-0.dtd"
   xmlns:xlink="http://www.w3.org/1999/xlink"
   xmlns="http://www.w3.org/2000/svg"
   xmlns:svg="http://www.w3.org/2000/svg">
  <defs
     id="defs2">
    <linearGradient
       id="linearGradient2"
       inkscape:collect="always">
      <stop
         style="stop-color:#8e44ad;stop-opacity:1;"
         offset="0"
         id="stop2" />
      <stop
         style="stop-color:#2980b9;stop-opacity:1;"
         offset="0.5"
         id="stop3" />
      <stop
         style="stop-color:#48c9b0;stop-opacity:1;"
         offset="1"
         id="stop4" />
    </linearGradient>
    <linearGradient
       inkscape:collect="always"
       xlink:href="#linearGradient2"
       id="linearGradient3"
       x1="57.953197"
       y1="372.03293"
       x2="460.83682"
       y2="139.42796"
       gradientUnits="userSpaceOnUse"
       spreadMethod="pad" />
    <filter
       y="-0.039996792"
       height="1.0799925"
       inkscape:menu-tooltip="Darkens the edge with an inner blur and adds a flexible glow"
       inkscape:menu="Shadows and Glows"
       inkscape:label="Dark and Glow"
       style="color-interpolation-filters:sRGB;"
       id="filter20"
       x="-0.031507252"
       width="1.0630146">
      <feGaussianBlur
         stdDeviation="5"
         result="result6"
         id="feGaussianBlur19" />
      <feComposite
         result="result8"
         in="SourceGraphic"
         operator="atop"
         in2="result6"
         id="feComposite19" />
      <feComposite
         result="result9"
         operator="over"
         in2="SourceAlpha"
         in="result8"
         id="feComposite20" />
      <feColorMatrix
         values="1 0 0 0 0 0 1 0 0 0 0 0 1 0 0 0 0 0 1 0 "
         result="result10"
         id="feColorMatrix20" />
      <feBlend
         in="result10"
         mode="normal"
         in2="result6"
         id="feBlend20" />
    </filter>
  </defs>
  <sodipodi:namedview
     id="namedview2"
     pagecolor="#ffffff"
     bordercolor="#000000"
     borderopacity="0.25"
     inkscape:showpageshadow="2"
     inkscape:pageopacity="0.0"
     inkscape:pagecheckerboard="0"
     inkscape:deskcolor="#d1d1d1"
     inkscape:zoom="1.9011947"
     inkscape:cx="281.66499"
     inkscape:cy="235.90429"
     inkscape:window-width="1920"
     inkscape:window-height="1011"
     inkscape:window-x="0"
     inkscape:window-y="0"
     inkscape:window-maximized="1"
     inkscape:current-layer="svg2" />
  <path
     d="M374 74.47c-7.1.26-10.8 6.79-4.3 15.89l24-3.41c-6.5-9.11-14.1-12.69-19.7-12.48zm-38 9.1c-3.5 0-6.6 1.01-9 2.73-7.1 5.1-7.6 16.8 7.9 28-8.9 15.9-29.8 45.8-60.2 43.2l32.1 9.8c-2.7 1.6-5.7 3.1-9.2 4.5C118.7 119.4 29.29 275.1 29.29 275.1c51.1 69.9 4.1 98.9 4.1 98.9l7.81 63h28.81l3.19-41s32.5-3 62.8-63.3c29 9.8 71 9.1 102.6 3.3l-4.1 7.1-37.4 11.1c31.2 2.8 58.5-2.3 78.7-8.5-3.4-15.1-4.5-31.5 3.5-52.8L307.2 437h25.9s-4.6-75 34.4-143.5c5-7.8 9.4-15.1 13.1-23.7l2 11.1-10.5 23.2s39-15.7 29.2-96c23 3.9 45.6 1.7 66.6-4.6 5.3-1.7 9.5-5.8 11.2-11 5-15.6 9.5-32.5 10.4-47.3l-9.7.8c-.2-15.3-21.2-13.1-14.9.8l-10.5.5-4.9-15.5s16.9-12.3 38.4-7.1c-.9-3.2-2.2-6-3.9-8.6-13.8-20.8-54.3-27.8-122.4-15.6-8-12.24-17.8-16.96-25.6-16.93zm49.9 33.83c12.4 1.4 21.9 4.3 30.2 9.6h-15.9c-1.6 4.8-7.5 8.4-14.5 8.4s-12.9-3.6-14.5-8.4h-15.5c4.2-3 15.3-9.7 30.2-9.6zm9.6 181.6c-15.2 30.3-34.5 33.8-34.5 33.8-13.4 37.7-10.4 71.8 1.8 103.9H385c-3.8-44.7-3.2-78.4 10.5-137.7zm-251.1 50.3L126.6 376l27.2 25.1 13.9 35.6h29.9l-20.1-81.8z"
     fill="#fff"
     fill-opacity="1"
     id="path2"
     style="height:512px;width:512px;stroke:url(#linearGradient3);stroke-opacity:1;stroke-width:5;stroke-dasharray:none;stroke-linecap:round;stroke-linejoin:round;filter:url(#filter20)" />
</svg>
